<svg version="1.1" id="Layer_1" xmlns="http://www.w3.org/2000/svg" xmlns:xlink="http://www.w3.org/1999/xlink" x="0px" y="0px"
	 width="100%" viewBox="0 0 133 100" enable-background="new 0 0 133 100" xml:space="preserve">
<path fill="#F2F2EE" opacity="1.000000" stroke="none" 
	d="
M134.000000,61.000000 
	C134.000000,70.354225 134.000000,79.708458 133.624512,89.578346 
	C129.712234,90.754684 128.159821,92.368797 129.763535,96.170609 
	C130.351929,97.565453 129.950119,99.377998 130.000000,101.000000 
	C87.055069,101.000000 44.110130,101.000000 1.082599,101.000000 
	C1.082599,67.764603 1.082599,34.528931 1.082599,1.000000 
	C38.353718,1.000000 75.708199,1.000000 113.485001,1.375070 
	C113.271545,4.499739 112.635773,7.249337 111.653931,10.255807 
	C111.168243,24.981979 111.062637,39.451775 110.851662,53.920036 
	C110.820663,56.044998 110.554054,58.252426 109.878517,60.246208 
	C109.535690,61.258007 108.043007,62.494854 107.061188,62.502659 
	C106.078911,62.510475 104.573441,61.299767 104.205620,60.291752 
	C103.484100,58.314377 103.110138,56.109913 103.087250,53.994072 
	C102.932320,39.678665 102.906815,25.361855 102.695404,10.700747 
	C100.812851,10.914179 99.074326,11.472363 97.272690,12.352533 
	C97.259491,13.106499 97.309402,13.538475 97.266724,14.432715 
	C97.159851,24.346962 97.067772,33.799709 97.160683,43.250637 
	C97.215759,48.852367 97.562752,54.451225 97.769684,60.448288 
	C98.169441,62.445164 98.379265,64.130943 99.025795,65.628151 
	C100.627510,69.337357 102.405022,73.271828 107.319740,72.960945 
	C112.021774,72.663506 113.887733,69.056671 115.215897,64.749138 
	C115.593384,63.662907 115.771904,62.832573 116.047478,61.768864 
	C116.130348,61.367592 116.116158,61.199692 116.277145,60.693840 
	C116.509781,58.559273 116.567230,56.762657 116.700623,54.537781 
	C116.730331,52.084026 116.684105,50.058533 116.741608,47.574169 
	C116.773399,42.065601 116.701477,37.015900 116.702408,31.559452 
	C116.728706,29.779652 116.682137,28.406595 116.732491,26.576626 
	C116.760002,22.068457 116.690590,18.017200 116.693298,13.647259 
	C116.724365,12.896694 116.683311,12.464814 116.727798,11.729059 
	C116.757111,11.008033 116.700890,10.590880 117.120209,10.127337 
	C118.866913,10.120243 120.138084,10.159540 121.369202,10.506794 
	C121.210709,11.210614 121.092278,11.606478 120.683640,12.043426 
	C120.085457,12.405911 119.777466,12.727313 119.469482,13.048716 
	C119.970734,13.369445 120.471992,13.690174 121.095367,13.997742 
	C121.217484,13.984581 121.456871,13.929430 121.390678,14.397822 
	C121.366196,20.897902 121.407913,26.929590 121.344658,33.338623 
	C121.309929,34.489250 121.380173,35.262531 121.369759,36.495617 
	C121.320862,44.291752 121.352623,51.628082 121.258263,59.366081 
	C119.137360,65.299988 117.974129,71.347092 114.945190,76.238998 
	C110.812340,82.913803 103.844017,82.571365 98.873924,76.354988 
	C94.192375,70.499504 92.863396,63.556419 92.767967,56.295918 
	C92.635147,46.190022 92.592613,36.082939 92.602325,25.622540 
	C92.692802,22.222145 92.692406,19.175577 92.797173,15.859158 
	C92.715912,15.275270 92.529480,14.961234 92.343048,14.647199 
	C92.181633,15.054372 92.020210,15.461544 91.606766,16.120510 
	C90.715965,18.182943 90.077187,19.993582 89.246658,22.105942 
	C88.346664,24.770748 87.071152,27.123606 87.028328,29.498688 
	C86.842712,39.793518 86.431938,50.142906 87.272736,60.376354 
	C87.804756,66.851753 89.782516,73.407082 92.237328,79.470932 
	C94.784721,85.763481 99.193321,91.054192 106.941040,91.119537 
	C114.737465,91.185295 118.630798,85.640190 121.842773,79.633835 
	C123.238121,77.024544 123.969437,74.066093 125.101997,71.307144 
	C125.509254,70.315041 126.208824,69.442940 126.808502,68.938210 
	C127.194000,70.059486 127.545990,70.758636 127.897972,71.457779 
	C128.252853,71.207970 128.607742,70.958153 128.962616,70.708336 
	C128.263245,69.955376 127.563881,69.202415 126.484268,68.366776 
	C126.481293,58.609238 126.858566,48.934372 127.644821,39.198215 
	C130.035873,38.091286 132.017929,37.045643 134.000000,36.000000 
	C134.000000,41.688042 134.000000,47.376080 133.639526,53.490749 
	C132.196777,54.306873 130.217621,54.624569 130.179749,55.097679 
	C129.956955,57.880558 129.819702,60.945866 134.000000,61.000000 
M36.720097,20.530636 
	C38.144173,20.020630 39.568249,19.510624 40.957508,18.291113 
	C40.058361,16.158875 39.159214,14.026637 38.216553,11.301161 
	C37.796864,10.993763 37.377171,10.686366 36.041725,10.202689 
	C30.549070,10.193886 25.049040,10.357769 19.566011,10.123598 
	C14.876966,9.923339 11.605680,11.965876 9.077793,15.632229 
	C3.004350,24.440924 2.946042,42.271614 9.564079,50.711517 
	C11.483543,53.159389 15.029538,55.348610 18.056433,55.698891 
	C24.287392,56.419956 30.671116,55.820927 37.595478,56.049843 
	C38.664867,56.834221 39.734253,57.618599 41.008961,59.097424 
	C41.840763,62.056087 42.672562,65.014748 43.300911,68.716309 
	C43.314663,69.483551 43.328415,70.250801 43.088543,71.749741 
	C42.912174,72.766296 42.735806,73.782860 42.172379,75.351707 
	C40.668549,79.477577 37.860100,81.206894 33.354298,81.008133 
	C26.872925,80.722237 20.368935,80.964867 13.874671,80.950195 
	C9.190687,80.939606 4.513827,86.056465 5.132147,90.696121 
	C5.178058,91.040619 6.233789,91.250534 7.216026,92.171074 
	C8.204742,91.937294 9.193460,91.703514 10.826532,91.256531 
	C11.493653,91.326767 12.160773,91.397003 13.150049,92.076950 
	C13.821058,91.877396 14.492067,91.677849 15.692906,91.277489 
	C16.056236,91.351639 16.419565,91.425789 17.302559,92.218582 
	C20.860609,91.963081 24.418659,91.707581 28.801094,91.237526 
	C30.208788,91.318993 31.616482,91.400467 33.232166,92.056633 
	C34.480896,91.840385 35.729630,91.624146 37.654835,91.109474 
	C43.510414,89.242653 46.019089,84.655258 47.823727,78.502602 
	C49.901962,69.334183 50.060314,60.374325 44.891186,51.466831 
	C44.451077,50.910931 44.010963,50.355034 43.211800,49.162979 
	C41.419369,48.061073 39.692455,46.165550 37.821800,46.011108 
	C32.878792,45.603004 27.873552,45.977287 22.892965,45.988926 
	C15.515800,46.006168 12.828784,44.332603 11.176338,38.779888 
	C9.054744,31.650700 11.026073,24.460627 16.531059,21.802797 
	C21.945236,21.862246 27.360653,21.999876 32.772526,21.914055 
	C33.833210,21.897236 34.880184,21.015541 36.720097,20.530636 
M21.748350,73.707664 
	C24.807959,73.603630 27.867567,73.499596 31.613979,73.584671 
	C33.395828,73.359375 35.177677,73.134087 37.622280,72.600571 
	C39.537155,67.840340 38.841850,63.437504 35.813259,63.363380 
	C28.984783,63.196232 22.137589,63.793816 14.913926,64.695107 
	C13.838960,67.519989 12.763992,70.344864 11.572557,73.475807 
	C15.143562,73.475807 18.054132,73.475807 21.748350,73.707664 
M43.622948,38.224850 
	C45.081406,38.132477 46.539860,38.040100 48.359943,37.924824 
	C47.796173,36.229858 47.219513,34.887836 46.908054,33.486858 
	C45.944958,29.154713 43.734951,27.328266 38.927490,27.754789 
	C32.654198,28.311361 26.288498,28.059853 19.974094,27.833809 
	C16.063457,27.693815 15.001029,29.758762 15.006680,33.016727 
	C15.012261,36.234657 15.976106,38.337933 19.924973,38.251045 
	C27.232954,38.090240 34.549934,38.338467 42.050568,38.873940 
	C42.323967,38.718880 42.597363,38.563824 43.622948,38.224850 
M68.751053,69.241966 
	C68.708717,68.152809 68.666382,67.063660 68.766830,65.506721 
	C68.766830,65.506721 68.692261,65.023346 68.959892,64.242676 
	C71.137833,57.126202 73.032700,49.907421 75.559181,42.916920 
	C79.474823,32.082806 83.821236,21.404383 87.975212,10.685222 
	C82.622841,9.046100 80.418228,10.952401 78.814438,15.650900 
	C75.332558,25.851448 71.151810,35.815475 67.187622,45.848869 
	C61.386688,60.531055 63.156925,75.803696 63.027576,91.188904 
	C64.716972,91.100349 65.860619,91.040405 67.509041,91.101540 
	C67.659958,91.016907 67.810883,90.932281 68.647018,90.455544 
	C68.604698,88.294258 68.562378,86.132980 68.664238,83.501022 
	C68.664238,83.501022 68.521393,83.029938 68.744965,82.156403 
	C68.663666,79.760567 68.582359,77.364731 68.684196,74.159897 
	C68.632088,72.784470 68.579987,71.409035 68.751053,69.241966 
M62.174103,40.339638 
	C58.927231,31.978201 55.524357,23.672625 52.501503,15.230968 
	C51.062386,11.212071 48.754478,10.219593 44.042454,11.775025 
	C49.240295,25.234388 54.355782,38.480492 59.471264,51.726593 
	C59.883347,51.663094 60.295433,51.599594 60.707516,51.536095 
	C61.303818,48.042793 61.900124,44.549496 62.174103,40.339638 
M66.475876,10.161133 
	C63.200737,10.161133 59.925598,10.161133 55.955170,10.161133 
	C59.241791,18.597141 62.292236,26.426937 65.824326,35.493015 
	C69.341705,26.355040 72.337662,18.571686 75.575401,10.160197 
	C72.323212,10.160197 69.875603,10.160197 66.475876,10.161133 
M116.629669,94.164841 
	C116.168808,93.531975 115.707954,92.899109 115.247093,92.266243 
	C114.921638,92.585358 114.596176,92.904465 114.270721,93.223579 
	C114.895622,93.695274 115.520515,94.166969 116.629669,94.164841 
M119.113243,94.632568 
	C119.051651,95.316040 118.990059,95.999519 118.928459,96.682999 
	C119.506859,96.508911 120.085258,96.334831 120.663658,96.160744 
	C120.340073,95.567268 120.016479,94.973785 119.113243,94.632568 
z"/>
<path fill="#F4F3EF" opacity="1.000000" stroke="none" 
	d="
M134.000000,35.531342 
	C132.017929,37.045643 130.035873,38.091286 127.562576,38.784058 
	C127.123260,32.954548 127.175171,27.477911 127.494293,21.950014 
	C127.581528,21.265413 127.401550,20.632069 127.141098,19.628284 
	C127.114685,18.505669 127.168747,17.753494 127.526344,16.934803 
	C127.630959,15.911637 127.432045,14.954987 127.154610,13.668449 
	C127.130775,12.893126 127.185448,12.447687 127.459473,11.977911 
	C127.893417,11.791032 128.108032,11.628490 128.322632,11.465948 
	C127.944298,11.309986 127.565971,11.154025 126.924423,10.727926 
	C124.910553,10.371471 123.159904,10.285154 121.409256,10.198837 
	C120.138084,10.159540 118.866913,10.120243 116.835693,10.146591 
	C115.705742,10.264448 115.335838,10.316662 114.598236,10.295506 
	C113.487022,10.147737 112.743515,10.073336 112.000000,9.998936 
	C112.635773,7.249337 113.271545,4.499739 113.953659,1.375070 
	C120.613167,1.000000 127.226341,1.000000 134.000000,1.000000 
	C134.000000,12.353817 134.000000,23.708250 134.000000,35.531342 
z"/>
<path fill="#F3F2ED" opacity="1.000000" stroke="none" 
	d="
M130.500000,101.000000 
	C129.950119,99.377998 130.351929,97.565453 129.763535,96.170609 
	C128.159821,92.368797 129.712234,90.754684 133.624512,90.047005 
	C134.000000,92.833336 133.651672,95.722115 134.091583,98.485420 
	C134.597290,101.661942 132.654388,100.951927 130.500000,101.000000 
z"/>
<path fill="#F3F2ED" opacity="1.000000" stroke="none" 
	d="
M134.000000,60.562500 
	C129.819702,60.945866 129.956955,57.880558 130.179749,55.097679 
	C130.217621,54.624569 132.196777,54.306873 133.639526,53.958687 
	C134.000000,56.041668 134.000000,58.083332 134.000000,60.562500 
z"/>
<path fill="#484745" opacity="1.000000" stroke="none" 
	d="
M121.369202,10.506794 
	C123.159904,10.285154 124.910553,10.371471 126.884804,10.981730 
	C127.152306,11.671196 127.196213,11.836723 127.240128,12.002250 
	C127.185448,12.447687 127.130775,12.893126 127.073883,14.039614 
	C127.122055,15.494216 127.172424,16.247768 127.222809,17.001320 
	C127.168747,17.753494 127.114685,18.505669 127.061813,19.959061 
	C127.117699,21.107275 127.172394,21.554274 127.227081,22.001272 
	C127.175171,27.477911 127.123260,32.954548 127.153595,38.845345 
	C126.858566,48.934372 126.481293,58.609238 126.466980,68.390717 
	C126.829948,68.497337 126.774994,68.516083 126.774994,68.516083 
	C126.208824,69.442940 125.509254,70.315041 125.101997,71.307144 
	C123.969437,74.066093 123.238121,77.024544 121.842773,79.633835 
	C118.630798,85.640190 114.737465,91.185295 106.941040,91.119537 
	C99.193321,91.054192 94.784721,85.763481 92.237328,79.470932 
	C89.782516,73.407082 87.804756,66.851753 87.272736,60.376354 
	C86.431938,50.142906 86.842712,39.793518 87.028328,29.498688 
	C87.071152,27.123606 88.346664,24.770748 89.565292,22.269640 
	C90.887604,23.413200 91.699524,24.694782 92.511444,25.976364 
	C92.592613,36.082939 92.635147,46.190022 92.767967,56.295918 
	C92.863396,63.556419 94.192375,70.499504 98.873924,76.354988 
	C103.844017,82.571365 110.812340,82.913803 114.945190,76.238998 
	C117.974129,71.347092 119.137360,65.299988 121.611511,59.222462 
	C122.286171,51.394295 122.494186,44.111649 122.624207,36.827610 
	C122.628792,36.570744 121.859184,36.300056 121.450417,36.035812 
	C121.380173,35.262531 121.309929,34.489250 121.693878,33.191319 
	C122.432167,27.670275 122.829514,22.675938 122.920189,17.676039 
	C122.942673,16.436422 121.971367,15.178783 121.456871,13.929430 
	C121.456871,13.929430 121.217484,13.984581 121.173355,13.665756 
	C121.077431,12.898734 121.025635,12.450538 120.973839,12.002341 
	C121.092278,11.606478 121.210709,11.210614 121.369202,10.506794 
z"/>
<path fill="#474746" opacity="1.000000" stroke="none" 
	d="
M36.991974,55.765121 
	C30.671116,55.820927 24.287392,56.419956 18.056433,55.698891 
	C15.029538,55.348610 11.483543,53.159389 9.564079,50.711517 
	C2.946042,42.271614 3.004350,24.440924 9.077793,15.632229 
	C11.605680,11.965876 14.876966,9.923339 19.566011,10.123598 
	C25.049040,10.357769 30.549070,10.193886 36.558933,10.554111 
	C37.470783,11.235154 37.865425,11.564777 38.260067,11.894400 
	C39.159214,14.026637 40.058361,16.158875 40.562279,18.645809 
	C38.136517,19.294216 36.105984,19.587927 33.683407,19.937347 
	C32.502510,19.955477 31.713655,19.917898 30.688690,19.640381 
	C28.989494,19.566805 27.526411,19.733164 25.610294,19.954321 
	C22.423288,19.975080 19.689314,19.941042 16.853184,19.764751 
	C16.503355,19.773285 16.255682,19.924074 15.993894,20.340288 
	C15.991108,20.782551 16.002436,20.959389 16.013763,21.136225 
	C11.026073,24.460627 9.054744,31.650700 11.176338,38.779888 
	C12.828784,44.332603 15.515800,46.006168 22.892965,45.988926 
	C27.873552,45.977287 32.878792,45.603004 37.821800,46.011108 
	C39.692455,46.165550 41.419369,48.061073 43.049019,49.649673 
	C40.921486,52.012619 38.956730,53.888870 36.991974,55.765121 
z"/>
<path fill="#484845" opacity="1.000000" stroke="none" 
	d="
M111.653931,10.255807 
	C112.743515,10.073336 113.487022,10.147737 114.650688,10.548812 
	C115.594650,11.261303 116.118454,11.647119 116.642265,12.032934 
	C116.683311,12.464814 116.724365,12.896694 116.345245,13.798489 
	C116.161919,18.523449 116.398743,22.778494 116.635574,27.033539 
	C116.682137,28.406595 116.728706,29.779652 116.351364,31.710781 
	C116.164268,37.523579 116.401077,42.778309 116.637878,48.033035 
	C116.684105,50.058533 116.730331,52.084026 116.376015,54.662468 
	C116.017647,57.154205 116.059814,59.092999 116.101974,61.031796 
	C116.116158,61.199692 116.130348,61.367592 115.791557,61.912163 
	C115.298027,63.194237 115.157478,64.099640 115.016922,65.005035 
	C113.887733,69.056671 112.021774,72.663506 107.319740,72.960945 
	C102.405022,73.271828 100.627510,69.337357 99.025795,65.628151 
	C98.379265,64.130943 98.169441,62.445164 98.130249,60.367512 
	C98.861053,59.579414 99.541542,59.265354 99.538033,58.959129 
	C99.384544,45.537426 99.221321,32.115192 98.896461,18.696960 
	C98.858040,17.109983 97.894180,15.545410 97.359314,13.970451 
	C97.309402,13.538475 97.259491,13.106499 97.558083,12.303478 
	C99.550873,11.636788 101.195160,11.341143 102.839447,11.045497 
	C102.906815,25.361855 102.932320,39.678665 103.087250,53.994072 
	C103.110138,56.109913 103.484100,58.314377 104.205620,60.291752 
	C104.573441,61.299767 106.078911,62.510475 107.061188,62.502659 
	C108.043007,62.494854 109.535690,61.258007 109.878517,60.246208 
	C110.554054,58.252426 110.820663,56.044998 110.851662,53.920036 
	C111.062637,39.451775 111.168243,24.981979 111.653931,10.255807 
z"/>
<path fill="#4A4A48" opacity="1.000000" stroke="none" 
	d="
M67.004272,90.980453 
	C65.860619,91.040405 64.716972,91.100349 63.027576,91.188904 
	C63.156925,75.803696 61.386688,60.531055 67.187622,45.848869 
	C71.151810,35.815475 75.332558,25.851448 78.814438,15.650900 
	C80.418228,10.952401 82.622841,9.046100 87.975212,10.685222 
	C83.821236,21.404383 79.474823,32.082806 75.559181,42.916920 
	C73.032700,49.907421 71.137833,57.126202 68.621429,64.662109 
	C68.061981,65.208977 67.841003,65.336426 67.620026,65.463867 
	C67.954697,65.634079 68.289375,65.804291 68.624046,65.974503 
	C68.666382,67.063660 68.708717,68.152809 68.337769,69.748482 
	C68.116676,71.826294 68.308868,73.397598 68.501060,74.968895 
	C68.582359,77.364731 68.663666,79.760567 68.445312,82.630363 
	C68.270462,83.393448 68.395264,83.682571 68.520065,83.971695 
	C68.562378,86.132980 68.604698,88.294258 68.195290,90.520554 
	C67.497131,90.717201 67.250702,90.848831 67.004272,90.980453 
z"/>
<path fill="#454544" opacity="1.000000" stroke="none" 
	d="
M47.385136,79.139061 
	C46.019089,84.655258 43.510414,89.242653 36.922157,91.203949 
	C35.134380,91.359589 34.079277,91.420761 33.024178,91.481934 
	C31.616482,91.400467 30.208788,91.318993 27.959549,91.256424 
	C23.672968,91.350204 20.227932,91.425079 16.782894,91.499947 
	C16.419565,91.425789 16.056236,91.351639 15.042068,91.290695 
	C13.870118,91.358345 13.349006,91.412796 12.827893,91.467239 
	C12.160773,91.397003 11.493653,91.326767 10.087683,91.275146 
	C8.505912,91.370178 7.662991,91.446594 6.820069,91.523018 
	C6.233789,91.250534 5.178058,91.040619 5.132147,90.696121 
	C4.513827,86.056465 9.190687,80.939606 13.874671,80.950195 
	C20.368935,80.964867 26.872925,80.722237 33.354298,81.008133 
	C37.860100,81.206894 40.668549,79.477577 42.681305,75.271164 
	C44.588531,76.506767 45.986832,77.822914 47.385136,79.139061 
z"/>
<path fill="#474747" opacity="1.000000" stroke="none" 
	d="
M41.863167,38.416325 
	C34.549934,38.338467 27.232954,38.090240 19.924973,38.251045 
	C15.976106,38.337933 15.012261,36.234657 15.006680,33.016727 
	C15.001029,29.758762 16.063457,27.693815 19.974094,27.833809 
	C26.288498,28.059853 32.654198,28.311361 38.927490,27.754789 
	C43.734951,27.328266 45.944958,29.154713 46.908054,33.486858 
	C47.219513,34.887836 47.796173,36.229858 48.359943,37.924824 
	C46.539860,38.040100 45.081406,38.132477 42.994427,38.247925 
	C42.198326,38.319435 42.030746,38.367878 41.863167,38.416325 
z"/>
<path fill="#4E4F4D" opacity="1.000000" stroke="none" 
	d="
M62.335266,40.697914 
	C61.900124,44.549496 61.303818,48.042793 60.707516,51.536095 
	C60.295433,51.599594 59.883347,51.663094 59.471264,51.726593 
	C54.355782,38.480492 49.240295,25.234388 44.042454,11.775025 
	C48.754478,10.219593 51.062386,11.212071 52.501503,15.230968 
	C55.524357,23.672625 58.927231,31.978201 62.335266,40.697914 
z"/>
<path fill="#4F4F4E" opacity="1.000000" stroke="none" 
	d="
M66.951935,10.160666 
	C69.875603,10.160197 72.323212,10.160197 75.575401,10.160197 
	C72.337662,18.571686 69.341705,26.355040 65.824326,35.493015 
	C62.292236,26.426937 59.241791,18.597141 55.955170,10.161133 
	C59.925598,10.161133 63.200737,10.161133 66.951935,10.160666 
z"/>
<path fill="#474746" opacity="1.000000" stroke="none" 
	d="
M47.604431,78.820831 
	C45.986832,77.822914 44.588531,76.506767 42.874832,74.995010 
	C42.735806,73.782860 42.912174,72.766296 43.546425,71.369675 
	C44.604198,70.408852 45.204098,69.828094 45.803997,69.247337 
	C45.037453,68.822693 44.270905,68.398056 43.504360,67.973412 
	C42.672562,65.014748 41.840763,62.056087 41.082989,58.383804 
	C42.419128,55.775970 43.681240,53.881752 44.943352,51.987534 
	C50.060314,60.374325 49.901962,69.334183 47.604431,78.820831 
z"/>
<path fill="#555453" opacity="1.000000" stroke="none" 
	d="
M30.927176,73.395569 
	C27.867567,73.499596 24.807959,73.603630 21.433414,73.271309 
	C22.482689,70.588448 23.846895,68.341942 25.383690,65.811234 
	C21.371712,65.122658 18.334860,64.601448 15.298011,64.080238 
	C22.137589,63.793816 28.984783,63.196232 35.813259,63.363380 
	C38.841850,63.437504 39.537155,67.840340 37.135372,72.464386 
	C35.999676,71.045364 35.334229,69.770599 34.707352,68.477150 
	C34.200279,67.430901 33.992325,65.974335 33.170238,65.438713 
	C32.615543,65.077301 30.839478,65.712288 30.305433,66.423737 
	C29.664398,67.277733 29.489803,68.716858 29.614828,69.847130 
	C29.749371,71.063446 30.465050,72.215477 30.927176,73.395569 
z"/>
<path fill="#42413F" opacity="1.000000" stroke="none" 
	d="
M15.105968,64.387672 
	C18.334860,64.601448 21.371712,65.122658 25.383690,65.811234 
	C23.846895,68.341942 22.482689,70.588448 21.041592,73.155380 
	C18.054132,73.475807 15.143562,73.475807 11.572557,73.475807 
	C12.763992,70.344864 13.838960,67.519989 15.105968,64.387672 
z"/>
<path fill="#565553" opacity="1.000000" stroke="none" 
	d="
M97.266724,14.432715 
	C97.894180,15.545410 98.858040,17.109983 98.896461,18.696960 
	C99.221321,32.115192 99.384544,45.537426 99.538033,58.959129 
	C99.541542,59.265354 98.861053,59.579414 98.139053,59.970596 
	C97.562752,54.451225 97.215759,48.852367 97.160683,43.250637 
	C97.067772,33.799709 97.159851,24.346962 97.266724,14.432715 
z"/>
<path fill="#373634" opacity="1.000000" stroke="none" 
	d="
M121.369759,36.495621 
	C121.859184,36.300056 122.628792,36.570744 122.624207,36.827610 
	C122.494186,44.111649 122.286171,51.394295 121.737640,58.820789 
	C121.352623,51.628082 121.320862,44.291752 121.369759,36.495621 
z"/>
<path fill="#42413F" opacity="1.000000" stroke="none" 
	d="
M31.270576,73.490112 
	C30.465050,72.215477 29.749371,71.063446 29.614828,69.847130 
	C29.489803,68.716858 29.664398,67.277733 30.305433,66.423737 
	C30.839478,65.712288 32.615543,65.077301 33.170238,65.438713 
	C33.992325,65.974335 34.200279,67.430901 34.707352,68.477150 
	C35.334229,69.770599 35.999676,71.045364 36.803993,72.618500 
	C35.177677,73.134087 33.395828,73.359375 31.270576,73.490112 
z"/>
<path fill="#939290" opacity="1.000000" stroke="none" 
	d="
M16.955338,19.907001 
	C19.689314,19.941042 22.423288,19.975080 26.013821,19.996754 
	C28.221851,19.949697 29.573326,19.915009 30.924801,19.880318 
	C31.713655,19.917898 32.502510,19.955477 33.936348,19.983114 
	C35.032047,20.159695 35.482761,20.346218 35.933479,20.532742 
	C34.880184,21.015541 33.833210,21.897236 32.772526,21.914055 
	C27.360653,21.999876 21.945236,21.862246 16.272411,21.469511 
	C16.002436,20.959389 15.991108,20.782551 16.233707,20.315020 
	C16.487635,20.024326 16.955338,19.907001 16.955338,19.907001 
z"/>
<path fill="#373634" opacity="1.000000" stroke="none" 
	d="
M121.390678,14.397821 
	C121.971367,15.178783 122.942673,16.436422 122.920189,17.676039 
	C122.829514,22.675938 122.432167,27.670275 121.798843,32.813972 
	C121.407913,26.929590 121.366196,20.897902 121.390678,14.397821 
z"/>
<path fill="#4D4D4C" opacity="1.000000" stroke="none" 
	d="
M44.917267,51.727180 
	C43.681240,53.881752 42.419128,55.775970 40.980328,58.036583 
	C39.734253,57.618599 38.664867,56.834221 37.293724,55.907482 
	C38.956730,53.888870 40.921486,52.012619 43.228546,49.967751 
	C44.010963,50.355034 44.451077,50.910931 44.917267,51.727180 
z"/>
<path fill="#575854" opacity="1.000000" stroke="none" 
	d="
M116.741608,47.574169 
	C116.401077,42.778309 116.164268,37.523579 116.278503,32.117523 
	C116.701477,37.015900 116.773399,42.065601 116.741608,47.574169 
z"/>
<path fill="#575854" opacity="1.000000" stroke="none" 
	d="
M116.732491,26.576626 
	C116.398743,22.778494 116.161919,18.523449 116.273132,14.117174 
	C116.690590,18.017200 116.760002,22.068457 116.732491,26.576626 
z"/>
<path fill="#3C3C3A" opacity="1.000000" stroke="none" 
	d="
M92.602325,25.622538 
	C91.699524,24.694782 90.887604,23.413200 89.757042,21.967918 
	C90.077187,19.993582 90.715965,18.182943 91.793503,16.254780 
	C92.232262,16.137257 92.692009,16.129009 92.692009,16.129009 
	C92.692406,19.175577 92.692802,22.222145 92.602325,25.622538 
z"/>
<path fill="#FDFDFA" opacity="1.000000" stroke="none" 
	d="
M17.042727,91.859268 
	C20.227932,91.425079 23.672968,91.350204 27.547358,91.363708 
	C24.418659,91.707581 20.860609,91.963081 17.042727,91.859268 
z"/>
<path fill="#575854" opacity="1.000000" stroke="none" 
	d="
M116.277145,60.693840 
	C116.059814,59.092999 116.017647,57.154205 116.300079,55.090725 
	C116.567230,56.762657 116.509781,58.559273 116.277145,60.693840 
z"/>
<path fill="#373634" opacity="1.000000" stroke="none" 
	d="
M36.326790,20.531689 
	C35.482761,20.346218 35.032047,20.159695 34.328388,19.927406 
	C36.105984,19.587927 38.136517,19.294216 40.579689,19.000565 
	C39.568249,19.510624 38.144173,20.020630 36.326790,20.531689 
z"/>
<path fill="#565553" opacity="1.000000" stroke="none" 
	d="
M102.695404,10.700747 
	C101.195160,11.341143 99.550873,11.636788 97.621201,11.981489 
	C99.074326,11.472363 100.812851,10.914179 102.695404,10.700747 
z"/>
<path fill="#3C3C3A" opacity="1.000000" stroke="none" 
	d="
M68.592628,74.564392 
	C68.308868,73.397598 68.116676,71.826294 68.226181,70.144302 
	C68.579987,71.409035 68.632088,72.784470 68.592628,74.564392 
z"/>
<path fill="#F3F2ED" opacity="1.000000" stroke="none" 
	d="
M116.387543,94.401749 
	C115.520515,94.166969 114.895622,93.695274 114.270721,93.223579 
	C114.596176,92.904465 114.921638,92.585358 115.247093,92.266243 
	C115.707954,92.899109 116.168808,93.531975 116.387543,94.401749 
z"/>
<path fill="#4D4D4C" opacity="1.000000" stroke="none" 
	d="
M43.402634,68.344864 
	C44.270905,68.398056 45.037453,68.822693 45.803997,69.247337 
	C45.204098,69.828094 44.604198,70.408852 43.673237,71.003830 
	C43.328415,70.250801 43.314663,69.483551 43.402634,68.344864 
z"/>
<path fill="#F3F2ED" opacity="1.000000" stroke="none" 
	d="
M119.403061,94.506439 
	C120.016479,94.973785 120.340073,95.567268 120.663658,96.160751 
	C120.085258,96.334831 119.506859,96.508911 118.928467,96.682999 
	C118.990059,95.999519 119.051651,95.316040 119.403061,94.506439 
z"/>
<path fill="#FDFDFA" opacity="1.000000" stroke="none" 
	d="
M33.128174,91.769287 
	C34.079277,91.420761 35.134380,91.359589 36.583920,91.353157 
	C35.729630,91.624146 34.480896,91.840385 33.128174,91.769287 
z"/>
<path fill="#F3F2ED" opacity="1.000000" stroke="none" 
	d="
M126.808502,68.938210 
	C126.774994,68.516083 126.829948,68.497337 126.847229,68.473389 
	C127.563881,69.202415 128.263245,69.955376 128.962616,70.708336 
	C128.607742,70.958153 128.252853,71.207970 127.897972,71.457779 
	C127.545990,70.758636 127.194000,70.059486 126.808502,68.938210 
z"/>
<path fill="#575854" opacity="1.000000" stroke="none" 
	d="
M115.215897,64.749138 
	C115.157478,64.099640 115.298027,63.194237 115.694504,62.145538 
	C115.771904,62.832573 115.593384,63.662907 115.215897,64.749138 
z"/>
<path fill="#FBFCF8" opacity="1.000000" stroke="none" 
	d="
M120.683640,12.043426 
	C121.025635,12.450538 121.077431,12.898734 121.051239,13.678917 
	C120.471992,13.690174 119.970734,13.369445 119.469482,13.048716 
	C119.777466,12.727313 120.085457,12.405911 120.683640,12.043426 
z"/>
<path fill="#575854" opacity="1.000000" stroke="none" 
	d="
M116.727798,11.729060 
	C116.118454,11.647119 115.594650,11.261303 115.018387,10.622181 
	C115.335838,10.316662 115.705742,10.264448 116.360153,10.192982 
	C116.700890,10.590880 116.757111,11.008033 116.727798,11.729060 
z"/>
<path fill="#FDFDFA" opacity="1.000000" stroke="none" 
	d="
M7.018047,91.847046 
	C7.662991,91.446594 8.505912,91.370178 9.765505,91.381744 
	C9.193460,91.703514 8.204742,91.937294 7.018047,91.847046 
z"/>
<path fill="#575854" opacity="1.000000" stroke="none" 
	d="
M38.238312,11.597780 
	C37.865425,11.564777 37.470783,11.235154 37.016811,10.642250 
	C37.377171,10.686366 37.796864,10.993763 38.238312,11.597780 
z"/>
<path fill="#FDFDFA" opacity="1.000000" stroke="none" 
	d="
M12.988972,91.772095 
	C13.349006,91.412796 13.870118,91.358345 14.777153,91.391098 
	C14.492067,91.677849 13.821058,91.877396 12.988972,91.772095 
z"/>
<path fill="#3C3C3A" opacity="1.000000" stroke="none" 
	d="
M68.592148,83.736359 
	C68.395264,83.682571 68.270462,83.393448 68.333527,83.067131 
	C68.521393,83.029938 68.664238,83.501022 68.592148,83.736359 
z"/>
<path fill="#3C3C3A" opacity="1.000000" stroke="none" 
	d="
M68.695435,65.740616 
	C68.289375,65.804291 67.954697,65.634079 67.620026,65.463867 
	C67.841003,65.336426 68.061981,65.208977 68.487610,65.052444 
	C68.692261,65.023346 68.766830,65.506721 68.695435,65.740616 
z"/>
<path fill="#7D7C7A" opacity="1.000000" stroke="none" 
	d="
M92.797173,15.859158 
	C92.692009,16.129009 92.232262,16.137257 92.045532,16.002987 
	C92.020210,15.461544 92.181633,15.054372 92.343048,14.647199 
	C92.529480,14.961234 92.715912,15.275270 92.797173,15.859158 
z"/>
<path fill="#3C3C3A" opacity="1.000000" stroke="none" 
	d="
M67.256653,91.041000 
	C67.250702,90.848831 67.497131,90.717201 67.852684,90.716614 
	C67.810883,90.932281 67.659958,91.016907 67.256653,91.041000 
z"/>
<path fill="#FBFCF8" opacity="1.000000" stroke="none" 
	d="
M41.956867,38.645134 
	C42.030746,38.367878 42.198326,38.319435 42.618332,38.339882 
	C42.597363,38.563824 42.323967,38.718880 41.956867,38.645134 
z"/>
<path fill="#F2F2EE" opacity="1.000000" stroke="none" 
	d="
M127.526337,16.934803 
	C127.172424,16.247768 127.122055,15.494216 127.152405,14.369500 
	C127.432045,14.954987 127.630959,15.911637 127.526337,16.934803 
z"/>
<path fill="#F2F2EE" opacity="1.000000" stroke="none" 
	d="
M127.494293,21.950014 
	C127.172394,21.554274 127.117699,21.107275 127.142296,20.329502 
	C127.401550,20.632069 127.581528,21.265413 127.494293,21.950014 
z"/>
<path fill="#F2F2EE" opacity="1.000000" stroke="none" 
	d="
M127.459473,11.977911 
	C127.196213,11.836723 127.152306,11.671196 127.148026,11.251867 
	C127.565971,11.154025 127.944298,11.309986 128.322632,11.465948 
	C128.108032,11.628490 127.893417,11.791032 127.459473,11.977911 
z"/>
<path fill="#373634" opacity="1.000000" stroke="none" 
	d="
M30.688690,19.640381 
	C29.573326,19.915009 28.221851,19.949697 26.466850,19.941956 
	C27.526411,19.733164 28.989494,19.566805 30.688690,19.640381 
z"/>
<path fill="#373634" opacity="1.000000" stroke="none" 
	d="
M16.853184,19.764750 
	C16.955338,19.907001 16.487635,20.024326 16.247822,20.049595 
	C16.255682,19.924074 16.503355,19.773285 16.853184,19.764750 
z"/>
</svg>